<svg width="200" height="200" viewBox="0 0 200 200" xmlns="http://www.w3.org/2000/svg">
  <!-- 背景圆形 -->
  <circle cx="100" cy="100" r="90" fill="#f0f0f0" stroke="#d0d0d0" stroke-width="2"/>
  
  <!-- 头部 -->
  <circle cx="100" cy="80" r="50" fill="#ffd7b5"/>
  
  <!-- 眼睛 -->
  <circle cx="80" cy="70" r="8" fill="#333"/>
  <circle cx="120" cy="70" r="8" fill="#333"/>
  <circle cx="83" cy="67" r="3" fill="white"/>
  <circle cx="123" cy="67" r="3" fill="white"/>
  
  <!-- 眉毛 -->
  <path d="M70 60 Q80 50 90 60" fill="none" stroke="#333" stroke-width="3"/>
  <path d="M110 60 Q120 50 130 60" fill="none" stroke="#333" stroke-width="3"/>
  
  <!-- 嘴巴 -->
  <path d="M80 100 Q100 120 120 100" fill="none" stroke="#333" stroke-width="3"/>
  
  <!-- 头发 -->
  <path d="M50 80 C30 60 30 100 50 120 C70 140 130 140 150 120 C170 100 170 60 150 80" fill="#333"/>
  <path d="M50 80 L30 60 L10 80 L30 100 Z" fill="#333"/>
  <path d="M150 80 L170 60 L190 80 L170 100 Z" fill="#333"/>
</svg>